<mxfile host="app.diagrams.net" modified="2023-09-25T19:54:59.588Z" agent="Mozilla/5.0 (Windows NT 10.0; Win64; x64) AppleWebKit/537.36 (KHTML, like Gecko) Chrome/116.0.0.0 Safari/537.36" etag="HyIGv8Cz2I0wGccRODgW" version="21.8.2" type="github">
  <diagram name="Page-1" id="2cc2dc42-3aac-f2a9-1cec-7a8b7cbee084">
    <mxGraphModel dx="880" dy="1328" grid="1" gridSize="10" guides="1" tooltips="1" connect="1" arrows="1" fold="1" page="1" pageScale="1" pageWidth="1100" pageHeight="850" background="#ffffff" math="0" shadow="0">
      <root>
        <mxCell id="0" />
        <mxCell id="1" parent="0" />
        <mxCell id="oLWAqpKavaJuwqKOd3UO-1" value="" style="strokeWidth=1;shadow=0;dashed=0;align=center;html=1;shape=mxgraph.mockup.containers.browserWindow;rSize=0;strokeColor=#666666;strokeColor2=#008cff;strokeColor3=#c4c4c4;mainText=,;recursiveResize=0;" vertex="1" parent="1">
          <mxGeometry x="40" y="-470" width="840" height="920" as="geometry" />
        </mxCell>
        <mxCell id="oLWAqpKavaJuwqKOd3UO-2" value="Page 1" style="strokeWidth=1;shadow=0;dashed=0;align=center;html=1;shape=mxgraph.mockup.containers.anchor;fontSize=17;fontColor=#666666;align=left;whiteSpace=wrap;" vertex="1" parent="oLWAqpKavaJuwqKOd3UO-1">
          <mxGeometry x="60" y="12" width="110" height="26" as="geometry" />
        </mxCell>
        <mxCell id="oLWAqpKavaJuwqKOd3UO-3" value="https://www.draw.io" style="strokeWidth=1;shadow=0;dashed=0;align=center;html=1;shape=mxgraph.mockup.containers.anchor;rSize=0;fontSize=17;fontColor=#666666;align=left;" vertex="1" parent="oLWAqpKavaJuwqKOd3UO-1">
          <mxGeometry x="130" y="60" width="250" height="26" as="geometry" />
        </mxCell>
        <mxCell id="oLWAqpKavaJuwqKOd3UO-8" value="Nombre" style="rounded=0;whiteSpace=wrap;fontStyle=1;spacing=10;fontSize=28;" vertex="1" parent="oLWAqpKavaJuwqKOd3UO-1">
          <mxGeometry x="460" y="120" width="330" height="70" as="geometry" />
        </mxCell>
        <mxCell id="oLWAqpKavaJuwqKOd3UO-50" value="" style="verticalLabelPosition=bottom;shadow=0;dashed=0;align=center;html=1;verticalAlign=top;strokeWidth=1;shape=mxgraph.mockup.containers.videoPlayer;strokeColor=#666666;strokeColor2=#008cff;strokeColor3=#c4c4c4;textColor=#666666;fillColor2=#008cff;barHeight=30;barPos=20;" vertex="1" parent="oLWAqpKavaJuwqKOd3UO-1">
          <mxGeometry x="460" y="200" width="360" height="160" as="geometry" />
        </mxCell>
        <mxCell id="oLWAqpKavaJuwqKOd3UO-51" value="&lt;font style=&quot;font-size: 16px;&quot; color=&quot;#ff33ff&quot;&gt;&lt;b&gt;INICIOS| MATERIAL DISCOGRAFICO| NOTICIAS| CONTACTO&lt;/b&gt;&lt;/font&gt;" style="rounded=0;whiteSpace=wrap;html=1;" vertex="1" parent="oLWAqpKavaJuwqKOd3UO-1">
          <mxGeometry x="30" y="390" width="770" height="60" as="geometry" />
        </mxCell>
        <mxCell id="oLWAqpKavaJuwqKOd3UO-33" value="" style="verticalLabelPosition=bottom;shadow=0;dashed=0;align=center;html=1;verticalAlign=top;strokeWidth=1;shape=mxgraph.mockup.graphics.simpleIcon;strokeColor=#999999;" vertex="1" parent="1">
          <mxGeometry x="40" y="-360" width="440" height="260" as="geometry" />
        </mxCell>
      </root>
    </mxGraphModel>
  </diagram>
</mxfile>
